<svg width="187" height="48" viewBox="0 0 187 48" fill="none" xmlns="http://www.w3.org/2000/svg">
<g clip-path="url(#clip0_1044_12906)">
<path d="M9.93791 29.9144L0 6.92883H5.4433L12.2906 24.0447L19.3108 6.92883H24.4168L14.8963 29.9144H9.93791Z" fill="#808285"/>
<path d="M26.9971 6.92883H33.0517L42.3909 23.4364L42.1548 6.92883H47.0542V29.9144H41.4886L31.6899 12.5264L31.9091 29.9144H26.9971V6.92883Z" fill="#808285"/>
<path d="M53.126 6.92883H63.553C67.2268 6.92883 69.9351 7.89436 71.6779 9.82542C73.4234 11.7522 74.3004 14.7594 74.3004 18.8257C74.3465 20.6718 74.0476 22.5101 73.4192 24.2446C72.9505 25.4773 72.2119 26.5873 71.2584 27.4918C70.3049 28.3962 69.1612 29.0717 67.9127 29.4678C66.5341 29.8113 65.1159 29.9658 63.6963 29.9271H53.126V6.92883ZM63.456 10.9271H57.9115V25.9119H63.4518C65.56 25.9119 67.0441 25.3802 67.8494 24.3041C68.6548 23.228 69.0469 21.2672 69.0469 18.4174C69.0469 15.5676 68.659 13.6322 67.8494 12.5476C67.0399 11.463 65.5768 10.9271 63.4518 10.9271" fill="#F7941D"/>
<path d="M92.2913 6.92883H87.2822V29.9101H92.2913V6.92883Z" fill="#808285"/>
<path d="M98.0801 6.92883H109.886C112.643 6.92883 114.66 7.48603 115.936 8.60043C117.222 9.71058 117.855 11.4587 117.855 13.8407C117.922 15.3673 117.51 16.8765 116.678 18.1536C115.857 19.2902 114.632 20.0628 113.259 20.3101L118.938 29.9144H113.533L108.511 20.8758H102.878V29.9144H98.0801V6.92883ZM108.739 11.0164H102.878V16.8053H108.739C110.337 16.8053 111.442 16.5969 112.061 16.1503C112.681 15.7037 112.989 14.9636 112.989 13.9045C112.989 12.8454 112.685 12.1095 112.083 11.6757C111.48 11.2418 110.366 11.0164 108.739 11.0164Z" fill="#808285"/>
<path d="M132.558 10.9271C130.821 10.9271 129.518 11.3525 128.637 12.2414C127.755 13.1304 127.262 14.4532 127.169 16.2609L140.426 16.2822V20.2762H127.14C127.14 22.2838 127.562 23.7172 128.405 24.5934C129.248 25.4696 130.618 25.912 132.562 25.912H140.43V29.9144H132.322C130.902 29.9533 129.484 29.7988 128.105 29.4551C126.857 29.0625 125.713 28.3898 124.759 27.4874C123.806 26.5849 123.067 25.4763 122.599 24.2446C121.982 22.5118 121.684 20.6795 121.722 18.8385C121.722 14.7722 122.599 11.765 124.353 9.83824C126.107 7.91143 128.801 6.94165 132.465 6.94165H140.426V10.9399L132.558 10.9271Z" fill="#808285"/>
<path d="M155.827 10.8506C153.846 10.8506 152.421 11.4886 151.535 12.7561C150.65 14.0236 150.237 16.1248 150.237 19.0299C150.237 21.5522 150.658 23.3301 151.502 24.3595C152.345 25.3888 153.787 25.912 155.84 25.912H163.72V29.9145H155.583C154.163 29.9529 152.745 29.7984 151.367 29.4551C150.123 29.0587 148.985 28.3842 148.035 27.4821C147.086 26.5799 146.351 25.4732 145.885 24.2446C145.266 22.5123 144.969 20.6796 145.008 18.8385C145.008 14.7722 145.885 11.765 147.627 9.83824C149.368 7.91143 152.083 6.94165 155.752 6.94165H163.725V10.8633L155.827 10.8506Z" fill="#808285"/>
<path d="M173.886 10.9654H166.528V6.95862H186.24V10.9654H178.848V29.9144H173.886V10.9654Z" fill="#808285"/>
<path d="M53.126 36.9241V32.1134H65.9647C65.9647 32.1134 66.0575 32.1134 66.3864 32.1134C66.8268 32.0796 67.2647 32.0185 67.6976 31.9305C69.1065 31.6643 70.4643 31.1732 71.72 30.4759C74.5408 28.7745 77.332 25.997 77.3994 18.9661V17.9835C77.3531 11.8118 75.1732 8.94922 72.7615 7.15002C70.8624 5.8361 68.6593 5.03909 66.3653 4.83615C66.0533 4.81063 65.9436 4.81063 65.9436 4.81063H53.126V0H65.9816C68.8045 0.106818 71.5624 0.885077 74.0306 2.27133C78.112 4.48737 82.2229 9.50217 82.1555 17.9835V18.9448C82.2229 27.4517 78.112 32.4409 74.0306 34.6527C71.5574 36.0416 68.7934 36.8199 65.9647 36.9241H53.126Z" fill="#808285"/>
<path d="M12.227 47.8341H11.3837L9.85742 41.9729H10.7007L11.8054 46.741L13.1124 41.9729H13.9557L15.267 46.741L16.3717 41.9729H17.2149L15.6928 47.8341H14.8496L13.5678 42.9597L12.227 47.8341Z" fill="#808285"/>
<path d="M24.0671 41.9729V47.8341H23.2871V41.9729H24.0671Z" fill="#808285"/>
<path d="M34.5736 43.6871H33.8484C33.8582 43.5019 33.8194 43.3174 33.7357 43.1523C33.652 42.9872 33.5265 42.8474 33.3719 42.7471C33.0822 42.5715 32.7483 42.4844 32.4106 42.4961C32.1202 42.4853 31.8313 42.5435 31.5673 42.6663C31.4142 42.7456 31.2875 42.8685 31.2029 43.0196C31.1182 43.1708 31.0793 43.3437 31.0909 43.5169C31.0863 43.6144 31.1028 43.7116 31.1392 43.802C31.1756 43.8923 31.231 43.9736 31.3017 44.0401C31.4373 44.149 31.5985 44.2208 31.7697 44.2485L33.4562 44.6399C33.8087 44.7084 34.1322 44.8835 34.3838 45.1418C34.6446 45.4334 34.781 45.817 34.7633 46.2094C34.7774 46.4923 34.7141 46.7738 34.5802 47.0228C34.4463 47.2719 34.2471 47.479 34.0044 47.6215C33.5463 47.8831 33.0252 48.0112 32.4991 47.9916C32.0941 48.0032 31.6905 47.9368 31.3101 47.7959C31.0984 47.7042 30.9032 47.5777 30.7325 47.4216C30.5262 47.2389 30.3695 47.0061 30.2771 46.7453C30.1895 46.4837 30.1467 46.209 30.1506 45.9329H30.8801C30.8666 46.143 30.9068 46.3531 30.9968 46.543C31.0869 46.7329 31.2238 46.8963 31.3945 47.0175C31.7201 47.2214 32.0994 47.3208 32.4823 47.3025C32.8977 47.332 33.3116 47.2262 33.6628 47.0005C33.7608 46.9215 33.8415 46.8229 33.8999 46.7109C33.9583 46.5989 33.9931 46.476 34.0022 46.3498C34.0113 46.2236 33.9945 46.0969 33.9528 45.9776C33.9111 45.8583 33.8454 45.7489 33.7598 45.6564C33.4592 45.4684 33.1258 45.3399 32.7774 45.2779L31.5758 45.0014C31.304 44.9421 31.048 44.8246 30.8253 44.6569C30.6681 44.5348 30.5424 44.3764 30.4587 44.1951C30.3751 44.0137 30.3359 43.8146 30.3446 43.6148C30.3229 43.1594 30.4788 42.7136 30.7789 42.3728C30.9806 42.1772 31.2205 42.0263 31.4833 41.9297C31.7461 41.833 32.0261 41.7927 32.3052 41.8113C33.199 41.8113 33.8301 42.0424 34.1983 42.5046C34.4572 42.8421 34.5901 43.2607 34.5736 43.6871Z" fill="#808285"/>
<path d="M40.9277 47.8341V41.9729H43.2762C43.613 41.9578 43.9487 42.0204 44.2578 42.156C44.5669 42.2917 44.8412 42.4967 45.0597 42.7555C45.5217 43.3373 45.7557 44.0699 45.7175 44.8142C45.7449 45.5171 45.5659 46.2126 45.2031 46.8133C44.9959 47.1431 44.7056 47.4114 44.3618 47.5907C44.0181 47.7701 43.6332 47.8541 43.2467 47.8341H40.9277ZM41.7078 42.6407V47.1493H43.2299C43.4671 47.1583 43.703 47.1092 43.9174 47.0063C44.1318 46.9033 44.3183 46.7496 44.461 46.5581C44.7924 46.0563 44.9509 45.4584 44.9122 44.8567C44.9526 44.2676 44.7919 43.6822 44.4568 43.1979C44.3033 43.0118 44.1093 42.864 43.8899 42.7659C43.6705 42.6677 43.4317 42.622 43.1919 42.6322L41.7078 42.6407Z" fill="#808285"/>
<path d="M57.3045 44.895C57.3256 45.6186 57.1157 46.3298 56.7058 46.9239C56.4375 47.2595 56.098 47.5302 55.7124 47.7162C55.3268 47.9022 54.9049 47.9988 54.4775 47.9988C54.05 47.9988 53.6281 47.9022 53.2425 47.7162C52.8569 47.5302 52.5175 47.2595 52.2491 46.9239C51.853 46.3259 51.6416 45.6228 51.6416 44.9035C51.6416 44.1843 51.853 43.4812 52.2491 42.8831C52.5179 42.5482 52.8575 42.2781 53.243 42.0926C53.6285 41.9071 54.0503 41.8108 54.4775 41.8108C54.9046 41.8108 55.3264 41.9071 55.7119 42.0926C56.0974 42.2781 56.437 42.5482 56.7058 42.8831C57.1156 43.4709 57.3256 44.1768 57.3045 44.895ZM56.495 44.895C56.5217 44.2825 56.3336 43.6801 55.9637 43.1936C55.7829 42.9731 55.5543 42.7973 55.2955 42.6801C55.0367 42.5628 54.7547 42.5071 54.4711 42.5173C54.1914 42.5062 53.9128 42.5607 53.6575 42.6765C53.4021 42.7924 53.1769 42.9665 52.9996 43.1851C52.6434 43.686 52.4517 44.287 52.4517 44.9035C52.4517 45.52 52.6434 46.121 52.9996 46.6219C53.1862 46.8299 53.4139 46.9962 53.6681 47.11C53.9223 47.2238 54.1973 47.2826 54.4753 47.2826C54.7534 47.2826 55.0284 47.2238 55.2826 47.11C55.5368 46.9962 55.7645 46.8299 55.9511 46.6219C56.3327 46.131 56.5272 45.5183 56.4992 44.895H56.495Z" fill="#808285"/>
<path d="M68.4477 47.8341H67.6846V42.9044L66.0486 47.8341H65.2728L63.6411 42.9172V47.8341H62.8779V41.9729H63.9953L65.6607 46.9239L67.3473 41.9729H68.4688L68.4477 47.8341Z" fill="#808285"/>
<path d="M81.4766 42.6747V41.9729H86.2031V42.6747H84.2256V47.8341H83.454V42.6747H81.4766Z" fill="#808285"/>
<path d="M97.3975 44.895C97.4186 45.6186 97.2087 46.3298 96.7988 46.9239C96.53 47.2596 96.1902 47.5303 95.8043 47.7163C95.4183 47.9023 94.996 47.9989 94.5683 47.9989C94.1406 47.9989 93.7183 47.9023 93.3324 47.7163C92.9464 47.5303 92.6066 47.2596 92.3379 46.9239C91.9257 46.3289 91.7129 45.6164 91.7307 44.8908C91.7114 44.1741 91.9214 43.4701 92.3294 42.8831C92.5986 42.5482 92.9386 42.278 93.3245 42.0925C93.7103 41.907 94.1324 41.8107 94.5599 41.8107C94.9874 41.8107 95.4094 41.907 95.7953 42.0925C96.1812 42.278 96.5211 42.5482 96.7903 42.8831C97.2014 43.4707 97.4143 44.176 97.3975 44.895ZM96.5879 44.895C96.6153 44.2817 96.4255 43.6787 96.0525 43.1936C95.8728 42.9729 95.6449 42.797 95.3868 42.6797C95.1286 42.5624 94.8471 42.5068 94.5641 42.5173C94.2837 42.5062 94.0046 42.5606 93.7485 42.6765C93.4925 42.7923 93.2665 42.9664 93.0884 43.1851C92.7333 43.6865 92.5424 44.2873 92.5424 44.9035C92.5424 45.5197 92.7333 46.1205 93.0884 46.6219C93.2749 46.8299 93.5027 46.9962 93.7568 47.11C94.011 47.2238 94.286 47.2826 94.5641 47.2826C94.8422 47.2826 95.1172 47.2238 95.3714 47.11C95.6255 46.9962 95.8532 46.8299 96.0398 46.6219C96.4214 46.131 96.6159 45.5183 96.5879 44.895Z" fill="#808285"/>
<path d="M114.407 43.6871H113.677C113.687 43.5019 113.648 43.3174 113.564 43.1523C113.481 42.9872 113.355 42.8474 113.201 42.7471C112.911 42.5727 112.577 42.4856 112.239 42.4961C111.949 42.4859 111.66 42.5442 111.396 42.6663C111.244 42.7467 111.119 42.8699 111.035 43.0209C110.951 43.1719 110.912 43.3442 110.924 43.517C110.918 43.6145 110.934 43.712 110.971 43.8025C111.007 43.8929 111.063 43.9741 111.135 44.0401C111.27 44.1491 111.432 44.2208 111.603 44.2485L113.289 44.6399C113.641 44.7095 113.965 44.8843 114.217 45.1418C114.478 45.4334 114.614 45.817 114.596 46.2094C114.61 46.4923 114.547 46.7738 114.413 47.0228C114.279 47.2719 114.08 47.479 113.837 47.6215C113.379 47.8831 112.858 48.0112 112.332 47.9916C111.927 48.0032 111.524 47.9368 111.143 47.7959C110.931 47.7042 110.736 47.5777 110.566 47.4216C110.359 47.2389 110.202 47.0061 110.11 46.7453C110.022 46.4837 109.98 46.209 109.984 45.9329H110.713C110.7 46.143 110.74 46.3531 110.83 46.543C110.92 46.7329 111.057 46.8963 111.227 47.0175C111.553 47.2214 111.932 47.3208 112.315 47.3025C112.731 47.332 113.145 47.2262 113.496 47.0005C113.606 46.9233 113.695 46.8193 113.755 46.6981C113.814 46.5769 113.843 46.4424 113.837 46.3072C113.848 46.1868 113.831 46.0656 113.787 45.9528C113.744 45.8401 113.676 45.7387 113.589 45.6564C113.288 45.4676 112.955 45.3391 112.606 45.2779L111.409 45.0014C111.137 44.9431 110.881 44.8255 110.658 44.6569C110.501 44.5348 110.375 44.3764 110.292 44.1951C110.208 44.0137 110.169 43.8146 110.178 43.6148C110.17 43.3858 110.207 43.1575 110.286 42.943C110.366 42.7284 110.486 42.5318 110.641 42.3643C110.842 42.1719 111.081 42.0235 111.341 41.9284C111.601 41.8332 111.879 41.7934 112.155 41.8113C113.049 41.8113 113.677 42.041 114.048 42.5046C114.301 42.8444 114.428 43.2628 114.407 43.6871Z" fill="#808285"/>
<path d="M124.479 41.9729H125.259V45.7755C125.272 46.0604 125.229 46.345 125.132 46.613C125.035 46.8809 124.886 47.1268 124.694 47.3365C124.462 47.5655 124.185 47.7428 123.881 47.8571C123.577 47.9714 123.252 48.0201 122.928 48C122.614 48.0197 122.3 47.9723 122.005 47.8609C121.711 47.7495 121.444 47.5766 121.22 47.3535C120.86 46.948 120.671 46.4171 120.693 45.8733V41.9729H121.473V45.6606C121.454 45.8949 121.486 46.1305 121.567 46.3509C121.648 46.5713 121.776 46.7712 121.941 46.9367C122.222 47.1713 122.58 47.2912 122.945 47.2727C123.319 47.2918 123.689 47.179 123.99 46.9537C124.162 46.7922 124.296 46.5935 124.38 46.3724C124.465 46.1514 124.499 45.9138 124.479 45.6776V41.9729Z" fill="#808285"/>
<path d="M136.188 43.7381H135.429C135.397 43.5309 135.32 43.3335 135.202 43.1606C135.085 42.9876 134.93 42.8434 134.75 42.7385C134.461 42.5829 134.138 42.5053 133.81 42.5131C133.556 42.5035 133.303 42.5504 133.07 42.6504C132.836 42.7503 132.626 42.9009 132.457 43.0915C132.062 43.5855 131.863 44.2103 131.9 44.8439C131.863 45.4521 132.01 46.0573 132.322 46.5793C132.491 46.8172 132.719 47.0068 132.983 47.1298C133.247 47.2527 133.537 47.3049 133.827 47.2812C134.158 47.2867 134.481 47.1854 134.75 46.9919C135.156 46.6664 135.422 46.1957 135.492 45.6776H136.256C136.187 46.3287 135.887 46.9328 135.412 47.379C134.944 47.7851 134.343 48.0005 133.726 47.983C133.392 47.9945 133.059 47.9367 132.747 47.813C132.436 47.6894 132.154 47.5026 131.917 47.2641C131.629 46.936 131.409 46.5535 131.268 46.1388C131.128 45.7241 131.07 45.2855 131.099 44.8482C131.062 44.0459 131.324 43.2586 131.833 42.6407C132.08 42.3583 132.386 42.1353 132.73 41.9881C133.074 41.8409 133.446 41.7732 133.819 41.79C134.442 41.7635 135.052 41.9762 135.526 42.3855C135.91 42.7345 136.147 43.2185 136.188 43.7381Z" fill="#808285"/>
<path d="M147.188 43.7381H146.429C146.398 43.5306 146.321 43.3329 146.203 43.1598C146.086 42.9867 145.931 42.8427 145.75 42.7385C145.461 42.5829 145.138 42.5053 144.81 42.5131C144.556 42.5035 144.303 42.5504 144.07 42.6504C143.836 42.7503 143.626 42.9009 143.457 43.0915C143.062 43.5855 142.863 44.2103 142.9 44.8439C142.865 45.4519 143.012 46.0565 143.322 46.5793C143.493 46.8154 143.721 47.0036 143.985 47.1264C144.248 47.2491 144.538 47.3024 144.827 47.2812C145.158 47.2867 145.481 47.1854 145.75 46.9919C146.156 46.6664 146.422 46.1957 146.492 45.6776H147.256C147.187 46.3288 146.888 46.9331 146.412 47.379C145.944 47.7841 145.343 47.9993 144.726 47.983C144.392 47.9943 144.059 47.9363 143.748 47.8127C143.436 47.689 143.154 47.5024 142.917 47.2641C142.629 46.936 142.409 46.5535 142.268 46.1388C142.128 45.7241 142.07 45.2855 142.099 44.8482C142.062 44.0459 142.324 43.2586 142.833 42.6407C143.08 42.3583 143.386 42.1353 143.73 41.9881C144.074 41.8409 144.446 41.7732 144.819 41.79C145.442 41.7635 146.052 41.9762 146.526 42.3855C146.911 42.7335 147.148 43.218 147.188 43.7381Z" fill="#808285"/>
<path d="M157.717 47.1323V47.8341H153.429V41.9729H157.691V42.6747H154.247V44.4697H157.417V45.1715H154.247V47.1323H157.717Z" fill="#808285"/>
<path d="M168.135 43.6871H167.389C167.399 43.5019 167.36 43.3174 167.276 43.1523C167.193 42.9872 167.067 42.8474 166.913 42.7471C166.623 42.5722 166.289 42.4851 165.951 42.4961C165.661 42.4859 165.372 42.5441 165.108 42.6662C164.956 42.7466 164.831 42.8698 164.747 43.0209C164.663 43.1719 164.624 43.3442 164.636 43.5169C164.63 43.6144 164.646 43.712 164.683 43.8024C164.719 43.8929 164.775 43.9741 164.847 44.0401C164.982 44.149 165.143 44.2208 165.315 44.2485L167.001 44.6398C167.353 44.7094 167.677 44.8843 167.929 45.1417C168.19 45.4334 168.326 45.817 168.308 46.2094C168.322 46.4923 168.259 46.7738 168.125 47.0228C167.991 47.2719 167.792 47.479 167.549 47.6215C167.091 47.8831 166.57 48.0112 166.044 47.9915C165.639 48.0032 165.235 47.9368 164.855 47.7959C164.643 47.7042 164.448 47.5777 164.277 47.4216C164.071 47.2389 163.914 47.0061 163.822 46.7453C163.734 46.4837 163.692 46.209 163.696 45.9329H164.421C164.407 46.1434 164.448 46.3539 164.539 46.5439C164.63 46.7339 164.768 46.8971 164.939 47.0175C165.265 47.2214 165.644 47.3208 166.027 47.3025C166.443 47.332 166.857 47.2261 167.208 47.0005C167.318 46.9233 167.407 46.8192 167.467 46.698C167.526 46.5769 167.555 46.4424 167.549 46.3072C167.56 46.1868 167.543 46.0656 167.499 45.9528C167.456 45.8401 167.388 45.7387 167.301 45.6564C167 45.4676 166.667 45.3391 166.318 45.2779L165.121 45.0014C164.848 44.9412 164.591 44.8238 164.366 44.6569C164.211 44.5328 164.088 44.3739 164.005 44.1929C163.922 44.0119 163.883 43.8139 163.89 43.6148C163.882 43.3858 163.919 43.1575 163.998 42.943C164.078 42.7284 164.198 42.5317 164.353 42.3643C164.556 42.1684 164.796 42.0173 165.06 41.9206C165.323 41.8239 165.604 41.7838 165.884 41.8028C166.774 41.8028 167.402 42.0325 167.777 42.4961C168.03 42.839 168.157 43.2601 168.135 43.6871Z" fill="#808285"/>
<path d="M178.68 43.6871H177.955C177.965 43.5014 177.926 43.3165 177.841 43.1513C177.757 42.9861 177.63 42.8465 177.475 42.7471C177.185 42.5715 176.851 42.4844 176.513 42.4961C176.223 42.4853 175.934 42.5435 175.67 42.6662C175.518 42.7465 175.392 42.8695 175.307 43.0205C175.222 43.1714 175.183 43.3439 175.194 43.5169C175.189 43.6143 175.205 43.7116 175.242 43.8019C175.278 43.8923 175.334 43.9736 175.404 44.0401C175.542 44.1489 175.704 44.2206 175.877 44.2485L177.542 44.6398C177.895 44.7084 178.218 44.8835 178.47 45.1417C178.73 45.4334 178.867 45.817 178.849 46.2094C178.863 46.4923 178.8 46.7738 178.666 47.0228C178.532 47.2719 178.333 47.479 178.09 47.6215C177.632 47.8835 177.111 48.0117 176.585 47.9915C176.18 48.0029 175.776 47.9365 175.396 47.7959C175.185 47.7033 174.99 47.5769 174.818 47.4216C174.614 47.2368 174.458 47.0047 174.363 46.7453C174.277 46.4834 174.235 46.2087 174.241 45.9329H174.979C174.965 46.1434 175.006 46.3539 175.097 46.5439C175.187 46.7339 175.325 46.8971 175.497 47.0175C175.821 47.2218 176.199 47.3213 176.581 47.3025C176.997 47.3311 177.412 47.2254 177.766 47.0005C177.875 46.9231 177.964 46.8189 178.023 46.6976C178.082 46.5764 178.109 46.4421 178.103 46.3072C178.114 46.1871 178.098 46.066 178.055 45.9532C178.013 45.8404 177.946 45.7389 177.858 45.6564C177.558 45.4684 177.224 45.3399 176.876 45.2779L175.674 45.0014C175.403 44.9413 175.147 44.8238 174.924 44.6569C174.767 44.5348 174.641 44.3764 174.557 44.195C174.474 44.0137 174.434 43.8146 174.443 43.6148C174.435 43.3858 174.472 43.1575 174.552 42.943C174.631 42.7284 174.752 42.5317 174.907 42.3643C175.109 42.1684 175.35 42.0173 175.613 41.9206C175.877 41.8239 176.158 41.7838 176.437 41.8028C177.326 41.8028 177.957 42.0339 178.331 42.4961C178.582 42.8393 178.706 43.2609 178.68 43.6871Z" fill="#808285"/>
</g>
<defs>
<clipPath id="clip0_1044_12906">
<rect width="186.24" height="48" fill="white"/>
</clipPath>
</defs>
</svg>
