<svg width="468" height="250" viewBox="0 0 468 250" fill="none" xmlns="http://www.w3.org/2000/svg">
<path d="M465.889 17.5356L384.815 39.2349L402.613 57.0638L328.063 131.742L249.966 53.5107L101.816 201.852L62.2928 162.261L1.55078 223.044L25.3662 246.901L62.2928 209.974L101.816 249.565L249.966 101.224L328.063 179.455L426.365 80.9203L444.163 98.6858L465.889 17.5356Z" fill="#ECCDFF" fill-opacity="0.1"/>
<path d="M101.817 235.099L62.2931 195.507L25.3665 232.498L0.347656 207.372L62.2931 145.32L101.817 184.912L249.966 36.5698L328.063 114.801L401.346 41.3919L383.105 23.1188L467.092 0.594727L444.607 84.727L426.365 66.4539L328.063 164.989L249.966 86.7573L101.817 235.099ZM62.2931 193.033L101.817 232.625L249.903 84.2828L328 162.514L426.429 63.9794L443.72 81.3642L464.622 3.0692L386.462 24.0071L403.753 41.3284L328.063 117.276L249.966 39.0443L101.817 187.449L62.2931 147.794L2.81787 207.372L25.3665 229.96L62.2931 193.033Z" fill="#F2DDFF" fill-opacity="0.2"/>
</svg>
