<svg width="950" height="233" viewBox="0 0 950 233" fill="none" xmlns="http://www.w3.org/2000/svg">
<g clip-path="url(#clip0_297_2029)">
<mask id="mask0_297_2029" style="mask-type:alpha" maskUnits="userSpaceOnUse" x="-6" y="-99" width="962" height="541">
<path d="M-5.15729 -98.8452H955.156V441.692H-5.15729V-98.8452Z" fill="url(#paint0_linear_297_2029)"/>
</mask>
<g mask="url(#mask0_297_2029)">
<path d="M946.562 91.0166H947.613V97.5141H950V119.873H947.613V125.415H946.562V119.873H944.175V97.5141H946.562V91.0166Z" fill="#F2DDFF" fill-opacity="0.15"/>
<path d="M935.484 67.3196H936.534V72.9571H938.922V106.4H936.534V111.942H935.484V106.4H933.097V72.9571H935.484V67.3196Z" fill="#F2DDFF" fill-opacity="0.15"/>
<path d="M924.312 72.9573H925.363V78.4993H927.75V92.4499H925.363V97.1319H924.312V92.4499H921.925V78.4993H924.312V72.9573Z" fill="#F2DDFF" fill-opacity="0.15"/>
<path d="M913.234 46.8716H914.284V50.5981H916.672V67.3197H914.284V72.0017H913.234V67.3197H910.847V50.5981H913.234V46.8716Z" fill="#F2DDFF" fill-opacity="0.15"/>
<path d="M902.156 83.6589H903.206V90.1565H905.594V103.152H903.206V110.605H902.156V103.152H899.768V90.1565H902.156V83.6589Z" fill="#F2DDFF" fill-opacity="0.15"/>
<path d="M890.984 107.738H892.034V111.465H894.422V117.962H892.034V121.689H890.984V117.962H888.597V111.465H890.984V107.738Z" fill="#F2DDFF" fill-opacity="0.15"/>
<path d="M879.906 104.776H880.956V112.229H883.344V142.901H880.956V149.399H879.906V142.901H877.518V112.229H879.906V104.776Z" fill="#F2DDFF" fill-opacity="0.15"/>
<path d="M872.266 165.834H869.878V170.42H868.828V165.834H866.44V152.743H872.266V165.834Z" fill="#F2DDFF" fill-opacity="0.15"/>
<path d="M857.654 148.156H858.8V153.699H861.092V185.326H858.8V188.097H857.654V185.326H855.362V153.699H857.654V148.156Z" fill="#F2DDFF" fill-opacity="0.15"/>
<path d="M846.578 130.957H847.628V134.684H850.016V167.171H844.19V134.684H846.578V130.957Z" fill="#F2DDFF" fill-opacity="0.15"/>
<path d="M835.5 120.733H836.55V125.415H838.938V148.634H836.55V151.405H835.5V148.634H833.112V125.415H835.5V120.733Z" fill="#F2DDFF" fill-opacity="0.15"/>
<path d="M824.422 150.163H825.472V162.203H827.859V165.929H825.472V168.7H824.422V165.929H822.034V162.203H824.422V150.163Z" fill="#F2DDFF" fill-opacity="0.15"/>
<path d="M813.25 116.147H814.3V119.013H816.688V137.55H814.3V142.232H813.25V137.55H810.862V119.013H813.25V116.147Z" fill="#F2DDFF" fill-opacity="0.15"/>
<path d="M802.172 135.257H803.222V138.984H805.609V152.839H803.222V158.476H802.172V152.839H799.784V138.984H802.172V135.257Z" fill="#F2DDFF" fill-opacity="0.15"/>
<path d="M791.093 132.39H792.144V135.257H794.531V149.112H792.144V151.979H791.093V149.112H788.706V135.257H791.093V132.39Z" fill="#F2DDFF" fill-opacity="0.15"/>
<path d="M783.359 145.481H780.972V153.794H779.922V145.481H777.534V121.306H783.359V145.481Z" fill="#F2DDFF" fill-opacity="0.15"/>
<path d="M772.281 169.082H769.894V182.173H768.843V169.082H766.456V134.779H772.281V169.082Z" fill="#F2DDFF" fill-opacity="0.15"/>
<path d="M757.765 152.265H758.816V164.305H761.203V193.162H758.816V206.157H757.765V193.162H755.378V164.305H757.765V152.265Z" fill="#F2DDFF" fill-opacity="0.15"/>
<path d="M746.591 150.45H747.642V162.489H750.029V175.484H747.642V179.211H746.591V175.484H744.204V162.489H746.591V150.45Z" fill="#F2DDFF" fill-opacity="0.15"/>
<path d="M735.515 164.305H736.566V168.031H738.953V188.479H733.128V168.031H735.515V164.305Z" fill="#F2DDFF" fill-opacity="0.15"/>
<path d="M724.437 181.982H725.488V184.753H727.875V201.475H725.488V214.47H724.437V201.475H722.05V184.753H724.437V181.982Z" fill="#F2DDFF" fill-opacity="0.15"/>
<path d="M713.263 194.117H714.314V196.888H716.701V217.336H714.314V219.152H713.263V217.336H710.876V196.888H713.263V194.117Z" fill="#F2DDFF" fill-opacity="0.15"/>
<path d="M702.187 198.226H703.238V210.361H705.625V215.903H703.238V228.898H702.187V215.903H699.8V210.361H702.187V198.226Z" fill="#F2DDFF" fill-opacity="0.15"/>
<path d="M691.109 183.415H692.159V195.455H694.547V213.132H688.722V195.455H691.109V183.415Z" fill="#F2DDFF" fill-opacity="0.15"/>
<path d="M679.935 168.509H680.986V175.962H683.373V194.499H680.986V200.997H679.935V194.499H677.548V175.962H679.935V168.509Z" fill="#F2DDFF" fill-opacity="0.15"/>
<path d="M668.859 168.509H669.909V175.962H672.297V188.957H669.909V193.639H668.859V188.957H666.472V175.962H668.859V168.509Z" fill="#F2DDFF" fill-opacity="0.15"/>
<path d="M657.781 168.509H658.831V175.962H661.219V178.733H655.393V175.962H657.781V168.509Z" fill="#F2DDFF" fill-opacity="0.15"/>
<path d="M650.045 203.863H647.753H646.607H644.315V181.504H650.045V203.863Z" fill="#F2DDFF" fill-opacity="0.15"/>
<path d="M635.529 158.381H636.579V173.287H638.967V201.092H636.579V214.087H635.529V201.092H633.141V173.287H635.529V158.381Z" fill="#F2DDFF" fill-opacity="0.15"/>
<path d="M624.453 187.237H625.503V194.595H627.891V207.59H625.503H624.453H622.065V194.595H624.453V187.237Z" fill="#F2DDFF" fill-opacity="0.15"/>
<path d="M613.279 179.784H614.425V185.326H616.717V192.779H610.987V185.326H613.279V179.784Z" fill="#F2DDFF" fill-opacity="0.15"/>
<path d="M602.201 165.834H603.251V170.516H605.639V186.282H603.251V189.053H602.201V186.282H599.813V170.516H602.201V165.834Z" fill="#F2DDFF" fill-opacity="0.15"/>
<path d="M591.125 165.834H592.175V173.287H594.562V178.829H592.175V191.824H591.125V178.829H588.737V173.287H591.125V165.834Z" fill="#F2DDFF" fill-opacity="0.15"/>
<path d="M580.046 159.336H581.097V171.376H583.484V176.058H581.097V189.053H580.046V176.058H577.659V171.376H580.046V159.336Z" fill="#F2DDFF" fill-opacity="0.15"/>
<path d="M568.873 132.39H569.923V144.43H572.311V164.878H569.923V168.605H568.873V164.878H566.485V144.43H568.873V132.39Z" fill="#F2DDFF" fill-opacity="0.15"/>
<path d="M557.796 162.776H558.847V169.273H561.234V177.586H558.847V181.313H557.796V177.586H555.409V169.273H557.796V162.776Z" fill="#F2DDFF" fill-opacity="0.15"/>
<path d="M546.718 139.557H547.769V142.328H550.156V162.776H547.769V166.503H546.718V162.776H544.331V142.328H546.718V139.557Z" fill="#F2DDFF" fill-opacity="0.15"/>
<path d="M538.982 171.089H536.595V174.816H535.545V171.089H533.157V139.557H538.982V171.089Z" fill="#F2DDFF" fill-opacity="0.15"/>
<path d="M524.466 133.919H525.517V139.557H527.904V165.547H525.517V173.86H524.466V165.547H522.079V139.557H524.466V133.919Z" fill="#F2DDFF" fill-opacity="0.15"/>
<path d="M513.39 124.651H514.441V128.377H516.828V146.055H511.003V128.377H513.39V124.651Z" fill="#F2DDFF" fill-opacity="0.15"/>
<path d="M502.216 135.83H503.267V140.417H505.654V153.412H499.829V140.417H502.216V135.83Z" fill="#F2DDFF" fill-opacity="0.15"/>
<path d="M491.138 137.646H492.189V139.557H494.576V156.278H492.189V169.273H491.138V156.278H488.751V139.557H491.138V137.646Z" fill="#F2DDFF" fill-opacity="0.15"/>
<path d="M480.062 118.153H481.113V121.88H483.5V146.914H481.113V152.552H480.062V146.914H477.675V121.88H480.062V118.153Z" fill="#F2DDFF" fill-opacity="0.15"/>
<path d="M468.888 103.247H469.939V115.382H472.326V139.557H469.939V144.143H468.888V139.557H466.501V115.382H468.888V103.247Z" fill="#F2DDFF" fill-opacity="0.15"/>
<path d="M457.81 93.4053H458.861V97.9918H461.248V131.435H458.861V137.932H457.81V131.435H455.423V97.9918H457.81V93.4053Z" fill="#F2DDFF" fill-opacity="0.15"/>
<path d="M446.732 146.341H447.783V150.928H450.17V166.789H447.783V179.784H446.732V166.789H444.345V150.928H446.732V146.341Z" fill="#F2DDFF" fill-opacity="0.15"/>
<path d="M438.998 160.292H436.611V173.287H435.56V160.292H433.173V140.704H438.998V160.292Z" fill="#F2DDFF" fill-opacity="0.15"/>
<path d="M424.482 131.435H425.533H427.92V137.933H425.533V150.928H424.482V137.933H422.095V131.435H424.482Z" fill="#F2DDFF" fill-opacity="0.15"/>
<path d="M413.404 144.526H414.454V160.292H416.842V219.725H414.454V232.72H413.404V219.725H411.017V160.292H413.404V144.526Z" fill="#F2DDFF" fill-opacity="0.15"/>
<path d="M402.232 139.461H403.378V151.501H405.67V186.855H403.378V192.397H402.232V186.855H399.94V151.501H402.232V139.461Z" fill="#F2DDFF" fill-opacity="0.15"/>
<path d="M391.154 119.969H392.204V125.511H394.592V147.774H392.204V151.501H391.154V147.774H388.766V125.511H391.154V119.969Z" fill="#F2DDFF" fill-opacity="0.15"/>
<path d="M380.076 102.292H381.126V114.331H383.514V122.74H381.126V135.735H380.076V122.74H377.688V114.331H380.076V102.292Z" fill="#F2DDFF" fill-opacity="0.15"/>
<path d="M368.904 106.974H370.05V110.7H372.342V141.277H370.05V145.959H368.904V141.277H366.612V110.7H368.904V106.974Z" fill="#F2DDFF" fill-opacity="0.15"/>
<path d="M357.826 126.466H358.876V132.008H361.264V162.68H358.876V175.676H357.826V162.68H355.438V132.008H357.826V126.466Z" fill="#F2DDFF" fill-opacity="0.15"/>
<path d="M346.748 150.068H347.798V153.794H350.186V175.198H347.798V182.651H346.748V175.198H344.36V153.794H346.748V150.068Z" fill="#F2DDFF" fill-opacity="0.15"/>
<path d="M335.671 90.4431H336.722V93.2141H339.109V166.598H336.722V179.593H335.671V166.598H333.284V93.2141H335.671V90.4431Z" fill="#F2DDFF" fill-opacity="0.15"/>
<path d="M324.498 61.6821H325.548V64.4531H327.936V103.438H325.548V116.433H324.498V103.438H322.11V64.4531H324.498V61.6821Z" fill="#F2DDFF" fill-opacity="0.15"/>
<path d="M313.42 69.4219H314.47V81.557H316.857V127.04H314.47V140.035H313.42V127.04H311.032V81.557H313.42V69.4219Z" fill="#F2DDFF" fill-opacity="0.15"/>
<path d="M305.779 117.771H303.392V130.766H302.341V117.771H299.954V62.9243H305.779V117.771Z" fill="#F2DDFF" fill-opacity="0.15"/>
<path d="M294.607 136.308H292.22V149.303H291.17V136.308H288.782V90.8254H294.607V136.308Z" fill="#F2DDFF" fill-opacity="0.15"/>
<path d="M280.091 88.0544H281.142V100.094H283.529V108.503H281.142V121.498H280.091V108.503H277.704V100.094H280.091V88.0544Z" fill="#F2DDFF" fill-opacity="0.15"/>
<path d="M272.451 136.308H270.064V158.667H269.013V136.308H266.626V109.363H272.451V136.308Z" fill="#F2DDFF" fill-opacity="0.15"/>
<path d="M257.841 106.592H258.892V109.363H261.279V120.542H258.892V133.537H257.841V120.542H255.454V109.363H257.841V106.592Z" fill="#F2DDFF" fill-opacity="0.15"/>
<path d="M246.763 92.4497H247.814V104.489H250.201V168.605H247.814V181.6H246.763V168.605H244.376V104.489H246.763V92.4497Z" fill="#F2DDFF" fill-opacity="0.15"/>
<path d="M235.685 101.718H236.736V113.853H239.123V131.435H236.736V135.161H235.685V131.435H233.298V113.853H235.685V101.718Z" fill="#F2DDFF" fill-opacity="0.15"/>
<path d="M224.513 101.718H225.564V113.853H227.951V122.166H225.564V135.161H224.513V122.166H222.126V113.853H224.513V101.718Z" fill="#F2DDFF" fill-opacity="0.15"/>
<path d="M213.435 122.549H214.486V134.684H216.873V142.997H214.486V155.992H213.435V142.997H211.048V134.684H213.435V122.549Z" fill="#F2DDFF" fill-opacity="0.15"/>
<path d="M202.357 122.549H203.408V134.684H205.795V161.629H199.97V134.684H202.357V122.549Z" fill="#F2DDFF" fill-opacity="0.15"/>
<path d="M191.183 94.7429H192.234V106.782H194.621V170.898H192.234V175.484H191.183V170.898H188.796V106.782H191.183V94.7429Z" fill="#F2DDFF" fill-opacity="0.15"/>
<path d="M183.545 161.629H181.158V174.625H180.107V161.629H177.72V134.684H183.545V161.629Z" fill="#F2DDFF" fill-opacity="0.15"/>
<path d="M169.029 122.549H170.079V134.684H172.467V152.265H170.079V165.26H169.029V152.265H166.641V134.684H169.029V122.549Z" fill="#F2DDFF" fill-opacity="0.15"/>
<path d="M157.855 104.011H159.001V116.051H161.293V140.226H155.563V116.051H157.855V104.011Z" fill="#F2DDFF" fill-opacity="0.15"/>
<path d="M146.779 129.237H147.829V132.008H150.217V149.59H147.829V153.316H146.779V149.59H144.391V132.008H146.779V129.237Z" fill="#F2DDFF" fill-opacity="0.15"/>
<path d="M135.701 119.873H136.751V132.008H139.139V149.59H136.751V153.316H135.701V149.59H133.313V132.008H135.701V119.873Z" fill="#F2DDFF" fill-opacity="0.15"/>
<path d="M124.623 110.605H125.673V122.644H128.061V131.053H125.673V144.048H124.623V131.053H122.235V122.644H124.623V110.605Z" fill="#F2DDFF" fill-opacity="0.15"/>
<path d="M116.889 137.168H114.501V150.163H113.451V137.168H111.063V119.586H116.889V137.168Z" fill="#F2DDFF" fill-opacity="0.15"/>
<path d="M102.373 98.1829H103.423V110.222H105.811V137.168H99.9852V110.222H102.373V98.1829Z" fill="#F2DDFF" fill-opacity="0.15"/>
<path d="M94.7324 118.631H92.345V131.626H91.2945V118.631H88.9071V100.954H94.7324V118.631Z" fill="#F2DDFF" fill-opacity="0.15"/>
<path d="M83.5586 133.441H81.1712V146.437H80.1208V133.441H77.7334V82.4167H83.5586V133.441Z" fill="#F2DDFF" fill-opacity="0.15"/>
<path d="M69.0445 92.6409H70.095V101.049H72.4824V118.727H66.6571V101.049H69.0445V92.6409Z" fill="#F2DDFF" fill-opacity="0.15"/>
<path d="M57.9664 56.4268H59.0169V68.5618H61.4043V96.3675H55.579V68.5618H57.9664V56.4268Z" fill="#F2DDFF" fill-opacity="0.15"/>
<path d="M46.7926 56.4268H47.8431V68.5618H50.2305V76.8749H44.4052V68.5618H46.7926V56.4268Z" fill="#F2DDFF" fill-opacity="0.15"/>
<path d="M35.7164 28.6211H36.7669V40.6606H39.1543V76.8748H33.329V40.6606H35.7164V28.6211Z" fill="#F2DDFF" fill-opacity="0.15"/>
<path d="M24.6383 65.6953H25.6888V68.5619H28.0762V95.5075H25.6888V99.1385H24.6383V95.5075H22.2509V68.5619H24.6383V65.6953Z" fill="#F2DDFF" fill-opacity="0.15"/>
<path d="M13.4645 75.0593H14.5149V77.8303H16.9023V104.776H14.5149V108.502H13.4645V104.776H11.077V77.8303H13.4645V75.0593Z" fill="#F2DDFF" fill-opacity="0.15"/>
<path d="M0.000874996 12.7595H2.38829V0.719971H3.43876V12.7595H5.82617V76.8748H3.43876V89.8699H2.38829V76.8748H0.000874996V12.7595Z" fill="#F2DDFF" fill-opacity="0.15"/>
</g>
</g>
<defs>
<linearGradient id="paint0_linear_297_2029" x1="947.496" y1="171.387" x2="-12.8371" y2="171.387" gradientUnits="userSpaceOnUse">
<stop/>
<stop offset="0.0302" stop-color="#1F1F1F"/>
<stop offset="0.0999" stop-color="#626262"/>
<stop offset="0.1661" stop-color="#9A9A9A"/>
<stop offset="0.2269" stop-color="#C6C6C6"/>
<stop offset="0.2813" stop-color="#E5E5E5"/>
<stop offset="0.3271" stop-color="#F8F8F8"/>
<stop offset="0.359" stop-color="white"/>
<stop offset="0.467" stop-color="#D9D9D9"/>
<stop offset="0.7092" stop-color="#7A7A7A"/>
<stop offset="1"/>
</linearGradient>
<clipPath id="clip0_297_2029">
<rect width="950" height="232" fill="white" transform="matrix(-1 0 0 1 950 0.719971)"/>
</clipPath>
</defs>
</svg>
