<svg width="18" height="22" viewBox="0 0 18 22" fill="none" xmlns="http://www.w3.org/2000/svg">
<path d="M0 4.88867H6.01954C8.13753 4.88867 9.69816 5.40317 10.7094 6.42848C11.7166 7.45378 12.2222 9.05281 12.2222 11.2145C12.2222 12.3323 12.059 13.2873 11.7166 14.0905C11.3822 14.8863 10.8726 15.5415 10.1998 16.0375C9.67825 16.4261 9.12885 16.7037 8.53963 16.8666C7.95042 17.0258 7.13427 17.1109 6.10713 17.1109H0V4.88867ZM5.96381 7.01331H2.76692V14.9826H5.96381C7.19001 14.9826 8.038 14.6975 8.49982 14.1275C8.96562 13.5538 9.19254 12.51 9.19254 10.9961C9.19254 9.48589 8.96562 8.44948 8.49982 7.87205C8.038 7.30202 7.19001 7.01331 5.96381 7.01331Z" fill="#F7941D"/>
<path d="M0 22V19.1308H7.56542C7.56542 19.1308 7.62233 19.1308 7.80527 19.1184C7.98414 19.1059 8.25244 19.0727 8.57766 19.0106C9.23217 18.882 10.1062 18.625 10.9477 18.144C12.6104 17.1406 14.2527 15.4738 14.2934 11.2861V10.7139C14.2649 7.03619 12.9803 5.33208 11.5697 4.2582C10.1509 3.2009 8.43131 2.92725 7.8012 2.8775C7.61826 2.86091 7.56135 2.86091 7.56135 2.86091H0V0H7.57761C7.70364 0.0082925 9.93545 0 12.3218 1.35168C14.7243 2.67018 17.1513 5.64719 17.1106 10.7139V11.2861C17.1513 16.3528 14.7284 19.3257 12.3218 20.6442C9.93545 21.9959 7.70363 21.9917 7.56948 21.9959H0V22Z" fill="#808285"/>
</svg>
